<?xml version="1.0" encoding="UTF-8"?>
<svg width="396px" height="440px" viewBox="0 0 396 440" version="1.1" xmlns="http://www.w3.org/2000/svg" xmlns:xlink="http://www.w3.org/1999/xlink">
    <!-- Generator: Sketch 53.2 (72643) - https://sketchapp.com -->
    <title>undraw_solution_mindset_34bi</title>
    <desc>Created with Sketch.</desc>
    <g id="Page-2" stroke="none" stroke-width="1" fill="none" fill-rule="evenodd">
        <g id="landingPage" transform="translate(-1327.000000, -345.000000)" fill-rule="nonzero">
            <g id="undraw_solution_mindset_34bi" transform="translate(1327.000000, 345.000000)">
                <ellipse id="Oval" fill="#F2F2F2" cx="91.5" cy="348" rx="91.5" ry="92"></ellipse>
                <path d="M202.008617,388.99928 C109.461496,388.999589 29.8019998,323.456321 11.7467259,232.453146 C-6.30854797,141.449972 42.2690501,50.3325654 127.771383,14.8247288 C213.273715,-20.6831077 311.88717,9.30806191 363.303658,86.4568246 C414.720146,163.605587 404.619447,266.424918 339.178748,332.034581 C302.878683,368.627761 253.485287,389.140098 202.008617,388.99928 Z M202.008617,1.50555199 C95.859894,1.50555199 9.50131119,88.0867552 9.50131119,194.509912 C9.50131119,300.93307 95.8598874,387.514631 202.008617,387.514631 C308.157347,387.514631 394.515923,300.93307 394.515923,194.509893 C394.515923,88.0867154 308.157334,1.50555199 202.008617,1.50555199 Z" id="Shape" fill="#2F2E41"></path>
                <polygon id="Path" fill="#000000" points="304 256.051961 303.978206 256.063132 208.430427 309 103.802988 256.948929 102 256.051961 107.430097 147.995276 201.913915 81 202.956742 81.6485767 300.742074 142.592442"></polygon>
                <polygon id="Path" fill="#000000" opacity="0.3" points="304 255.927543 208.058536 309 103 256.815609 196.062703 192"></polygon>
                <polygon id="Path" fill="#000000" opacity="0.1" points="304 257 198 192.663308 204.381643 81 300.788017 142.50179"></polygon>
                <polygon id="Path" fill="#F2F2F2" points="106.529742 181 106 180.23946 201.314062 112 302 176.030423 301.512426 176.819701 201.343712 113.118088"></polygon>
                <polygon id="Path" fill="#F2F2F2" points="103.518064 218 103 217.254271 198.348867 154 198.598624 154.13853 302 211.401722 301.54421 212.186291 198.392591 155.060981"></polygon>
                <polygon id="Path" fill="#F2F2F2" points="140.486172 276 140 275.217773 236.077332 215.836542 236.077332 102 237 102 237 216.349218"></polygon>
                <polygon id="Path" fill="#F2F2F2" points="178.487871 295 178 294.218028 270.081617 236.164574 270.081617 123 271 123 271 236.675506"></polygon>
                <polygon id="Path" fill="#F2F2F2" points="269.547596 276 161 216.226091 161.01537 215.938653 166.729562 104 167.659095 104.047023 161.959605 215.698238 270 275.193318"></polygon>
                <polygon id="Path" fill="#F2F2F2" points="235.574709 295 130 239.599256 130.016433 239.30503 136.240011 128 137.154354 128.051341 130.947866 239.061487 236 294.187752"></polygon>
                <circle id="Oval" fill="#000000" cx="322" cy="43" r="37"></circle>
            </g>
        </g>
    </g>
</svg>